SplineFontDB: 3.2
FontName: FanEgyTran
FullName: FanEgyTran
FamilyName: FanEgyTran
Weight: Regular
Copyright: Copyright (c) fANhAN iNSiDE 2021, 
UComments: "2021-6-22: Created with FontForge (http://fontforge.org)"
Version: 001.000
ItalicAngle: 0
UnderlinePosition: -856
UnderlineWidth: 98
Ascent: 1638
Descent: 410
InvalidEm: 0
LayerCount: 2
Layer: 0 0 "Back" 1
Layer: 1 0 "Fore" 0
XUID: [1021 991 -1287261736 30825]
OS2Version: 0
OS2_WeightWidthSlopeOnly: 0
OS2_UseTypoMetrics: 1
CreationTime: 1624311245
ModificationTime: 1624312843
OS2TypoAscent: 0
OS2TypoAOffset: 1
OS2TypoDescent: 0
OS2TypoDOffset: 1
OS2TypoLinegap: 0
OS2WinAscent: 0
OS2WinAOffset: 1
OS2WinDescent: 0
OS2WinDOffset: 1
HheadAscent: 0
HheadAOffset: 1
HheadDescent: 0
HheadDOffset: 1
OS2Vendor: 'PfEd'
MarkAttachClasses: 1
DEI: 91125
Encoding: ISO8859-1
UnicodeInterp: none
NameList: AGL For New Fonts
DisplaySize: -48
AntiAlias: 1
FitToEm: 0
WinInfo: 0 38 14
BeginPrivate: 0
EndPrivate
BeginChars: 256 33

StartChar: A
Encoding: 65 65 0
Width: 473
Flags: HW
LayerCount: 2
Fore
SplineSet
473 605 m 0
 473 489.666992188 397 410.333007812 245 367 c 0
 223 361 205.333007812 358 192 358 c 0
 174.666992188 358 166 369.333007812 166 392 c 0
 166 406 172.333007812 415.666992188 185 421 c 0
 194.333007812 423 208.333007812 426.333007812 227 431 c 0
 255.666992188 437.666992188 285 453 315 477 c 0
 349 504.333007812 366 531 366 557 c 0
 366 593.666992188 342 617.333007812 294 628 c 0
 267.333007812 631.333007812 240.666992188 635 214 639 c 1
 188 647.666992188 175 669 175 703 c 0
 175 734.333007812 188 759.333007812 214 778 c 0
 237.333007812 794.666992188 265.333007812 803 298 803 c 0
 349.333007812 803 391.666992188 782.333007812 425 741 c 0
 457 702.333007812 473 657 473 605 c 0
387 97 m 0
 387 13 349.666992188 -56 275 -110 c 0
 207.666992188 -158.666992188 130.666992188 -183 44 -183 c 0
 14.6669921875 -183 0 -172.666992188 0 -152 c 0
 0 -134.666992188 8.6669921875 -123.333007812 26 -118 c 1
 68 -115 l 2
 108 -111 150.666992188 -94 196 -64 c 0
 247.333007812 -30 273 5 273 41 c 0
 273 87.6669921875 242.833007812 121.333007812 182.5 142 c 0
 122.166992188 162.666992188 92 187.333007812 92 216 c 0
 92 281.333007812 128.333007812 314 201 314 c 0
 255.666992188 314 301 291 337 245 c 0
 370.333007812 202.333007812 387 153 387 97 c 0
EndSplineSet
EndChar

StartChar: a
Encoding: 97 97 1
Width: 510
Flags: HW
LayerCount: 2
Fore
SplineSet
510 690 m 0
 510 654.666992188 469 631.333007812 387 620 c 0
 285 606.666992188 223.666992188 592 203 576 c 0
 143 530.666992188 113 468.333007812 113 389 c 0
 113 368.333007812 119.333007812 338.333007812 132 299 c 0
 144.666992188 259.666992188 151 229.333007812 151 208 c 0
 151 178.666992188 136.666992188 164 108 164 c 0
 75.3330078125 164 48 199.666992188 26 271 c 0
 8.6669921875 326.333007812 0 376.333007812 0 421 c 0
 0 518.333007812 35.3330078125 605.666992188 106 683 c 0
 178 763 262.333007812 803 359 803 c 0
 396.333007812 803 429.666992188 793.666992188 459 775 c 0
 493 753.666992188 510 725.333007812 510 690 c 0
EndSplineSet
EndChar

StartChar: b
Encoding: 98 98 2
Width: 786
Flags: HW
LayerCount: 2
Fore
SplineSet
786 620 m 0
 786 474 697 325.666992188 519 175 c 0
 387 63.6669921875 265.666992188 8 155 8 c 0
 111 8 74.6669921875 19 46 41 c 0
 15.3330078125 65 0 98.3330078125 0 141 c 0
 0 159 3 179 9 201 c 2
 281 1137 l 2
 284.333007812 1149 286 1159.66699219 286 1169 c 0
 286 1193.66699219 268.666992188 1210.33300781 234 1219 c 0
 199.333007812 1227.66699219 182 1237 182 1247 c 0
 182 1273.66699219 193 1292 215 1302 c 0
 215.666992188 1302.66699219 228.333007812 1303.66699219 253 1305 c 0
 285.666992188 1307.66699219 346.666992188 1321 436 1345 c 0
 437.333007812 1345.66699219 439.666992188 1346 443 1346 c 0
 460.333007812 1346 469 1338 469 1322 c 0
 469 1314.66699219 450.333007812 1247 413 1119 c 2
 241 532 l 1
 391 712.666992188 526 803 646 803 c 0
 689.333007812 803 724.333007812 782.666992188 751 742 c 0
 774.333007812 706.666992188 786 666 786 620 c 0
637 611 m 0
 637 661 616.333007812 686 575 686 c 0
 498.333007812 686 406.333007812 619.666992188 299 487 c 0
 194.333007812 358.333007812 142 254.333007812 142 175 c 0
 142 119 160.666992188 91 198 91 c 0
 282.666992188 91 378 157 484 289 c 0
 586 416.333007812 637 523.666992188 637 611 c 0
EndSplineSet
EndChar

StartChar: d
Encoding: 100 100 3
Width: 882
Flags: HW
LayerCount: 2
Fore
SplineSet
882 1323 m 0
 882 1319 881.333007812 1314.33300781 880 1309 c 2
 596 202 l 2
 593.333007812 192.666992188 592 182.333007812 592 171 c 0
 592 155 598 147 610 147 c 0
 629.333007812 147 658.666992188 173.5 698 226.5 c 0
 737.333007812 279.5 759.666992188 306 765 306 c 0
 771.666992188 306 779.5 301.5 788.5 292.5 c 0
 797.5 283.5 802 275.666992188 802 269 c 0
 802 264.333007812 801 259.666992188 799 255 c 0
 776.333007812 208.333007812 740.333007812 158.333007812 691 105 c 0
 632.333007812 41.6669921875 583.666992188 10 545 10 c 0
 490.333007812 10 463 44 463 112 c 0
 463 146.666992188 473.333007812 203.333007812 494 282 c 1
 370 99.3330078125 255.333007812 8 150 8 c 0
 102.666992188 8 64.6669921875 32.3330078125 36 81 c 0
 12 122.333007812 0 168.333007812 0 219 c 0
 0 345.666992188 49 472.666992188 147 600 c 0
 251 735.333007812 364.333007812 803 487 803 c 0
 535.666992188 803 576.666992188 789 610 761 c 1
 710 1176 l 2
 711.333007812 1180.66699219 712 1187 712 1195 c 0
 712 1212.33300781 699.5 1224 674.5 1230 c 0
 649.5 1236 637 1243.66699219 637 1253 c 0
 637 1281 651.333007812 1298.66699219 680 1306 c 1
 758 1316 l 2
 765.333007812 1317.33300781 796.333007812 1327.33300781 851 1346 c 1
 871.666992188 1346 882 1338.33300781 882 1323 c 0
559 623 m 0
 559 649 552 671.833007812 538 691.5 c 0
 524 711.166992188 504.333007812 721 479 721 c 0
 424.333007812 721 365.666992188 682 303 604 c 0
 261.666992188 552 226.666992188 492.333007812 198 425 c 0
 166.666992188 350.333007812 151 283.333007812 151 224 c 0
 151 155.333007812 174.666992188 121 222 121 c 0
 280.666992188 121 352.666992188 190.333007812 438 329 c 0
 518.666992188 459.666992188 559 557.666992188 559 623 c 0
EndSplineSet
EndChar

StartChar: D
Encoding: 68 68 4
Width: 890
Flags: HW
LayerCount: 2
Fore
SplineSet
890 1323 m 0
 890 1319 889.333007812 1314.33300781 888 1309 c 2
 604 202 l 2
 601.333007812 192.666992188 600 182.333007812 600 171 c 0
 600 155 606 147 618 147 c 0
 637.333007812 147 666.666992188 173.5 706 226.5 c 0
 745.333007812 279.5 767.666992188 306 773 306 c 0
 779.666992188 306 787.5 301.5 796.5 292.5 c 0
 805.5 283.5 810 275.666992188 810 269 c 0
 810 264.333007812 809 259.666992188 807 255 c 0
 784.333007812 208.333007812 748.333007812 158.333007812 699 105 c 0
 640.333007812 41.6669921875 591.666992188 10 553 10 c 0
 498.333007812 10 471 44 471 112 c 0
 471 146.666992188 481.333007812 203.333007812 502 282 c 1
 378 99.3330078125 263.333007812 8 158 8 c 0
 110.666992188 8 72.6669921875 32.3330078125 44 81 c 0
 20 122.333007812 8 168.333007812 8 219 c 0
 8 345.666992188 57 472.666992188 155 600 c 0
 259 735.333007812 372.333007812 803 495 803 c 0
 543.666992188 803 584.666992188 789 618 761 c 1
 718 1176 l 2
 719.333007812 1180.66699219 720 1187 720 1195 c 0
 720 1212.33300781 707.5 1224 682.5 1230 c 0
 657.5 1236 645 1243.66699219 645 1253 c 0
 645 1281 659.333007812 1298.66699219 688 1306 c 1
 766 1316 l 2
 773.333007812 1317.33300781 804.333007812 1327.33300781 859 1346 c 1
 879.666992188 1346 890 1338.33300781 890 1323 c 0
597 -224 m 0
 597 -238 593.333007812 -255 586 -275 c 0
 576.666992188 -298.333007812 566.333007812 -310 555 -310 c 2
 26 -310 l 2
 8.6669921875 -310 0 -301.666992188 0 -285 c 0
 0 -271.666992188 3.6669921875 -255.333007812 11 -236 c 0
 19.6669921875 -212.666992188 29.6669921875 -201 41 -201 c 2
 570 -201 l 2
 588 -201 597 -208.666992188 597 -224 c 0
567 623 m 0
 567 649 560 671.833007812 546 691.5 c 0
 532 711.166992188 512.333007812 721 487 721 c 0
 432.333007812 721 373.666992188 682 311 604 c 0
 269.666992188 552 234.666992188 492.333007812 206 425 c 0
 174.666992188 350.333007812 159 283.333007812 159 224 c 0
 159 155.333007812 182.666992188 121 230 121 c 0
 288.666992188 121 360.666992188 190.333007812 446 329 c 0
 526.666992188 459.666992188 567 557.666992188 567 623 c 0
EndSplineSet
EndChar

StartChar: f
Encoding: 102 102 5
Width: 692
Flags: HW
LayerCount: 2
Fore
SplineSet
892 1223 m 0
 892 1173.66699219 868 1149 820 1149 c 0
 789.333007812 1149 763.333007812 1168.16699219 742 1206.5 c 0
 720.666992188 1244.83300781 699 1264 677 1264 c 0
 611 1264 535.666992188 1102.33300781 451 779 c 1
 596 779 l 2
 611.333007812 779 619 770.666992188 619 754 c 0
 619 740 615.333007812 726 608 712 c 0
 599.333007812 694.666992188 588.666992188 686 576 686 c 2
 426 686 l 1
 330 340 l 2
 272.666992188 134.666992188 225.666992188 -10.6669921875 189 -96 c 0
 102.333007812 -294 7.6669921875 -393 -95 -393 c 0
 -165 -393 -200 -364.333007812 -200 -307 c 0
 -200 -256.333007812 -169.666992188 -231 -109 -231 c 0
 -95.6669921875 -231 -81.1669921875 -237.833007812 -65.5 -251.5 c 0
 -49.8330078125 -265.166992188 -38.3330078125 -272 -31 -272 c 0
 8.3330078125 -272 74.3330078125 -100 167 244 c 2
 286 686 l 1
 184 686 l 2
 167.333007812 686 159 693.333007812 159 708 c 0
 159 721.333007812 163.333007812 736.5 172 753.5 c 0
 180.666992188 770.5 191 779 203 779 c 2
 312 779 l 1
 356.666992188 955 395 1074.66699219 427 1138 c 0
 497 1276.66699219 590 1346 706 1346 c 0
 750.666992188 1346 790.666992188 1336.66699219 826 1318 c 0
 870 1295.33300781 892 1263.66699219 892 1223 c 0
EndSplineSet
EndChar

StartChar: g
Encoding: 103 103 6
Width: 808
Flags: HW
LayerCount: 2
Fore
SplineSet
808 706 m 0
 808 694.666992188 804 681.333007812 796 666 c 0
 786.666992188 648.666992188 777 640 767 640 c 2
 686 639 l 1
 696 610.333007812 701 581 701 551 c 0
 701 466.333007812 669.833007812 392.333007812 607.5 329 c 0
 545.166992188 265.666992188 472 234 388 234 c 0
 370.666992188 234 353.666992188 235.333007812 337 238 c 1
 315.666992188 217.333007812 305 200.666992188 305 188 c 0
 305 172.666992188 331 150.333007812 383 121 c 2
 579 11 l 2
 666.333007812 -38.3330078125 710 -96.6669921875 710 -164 c 0
 710 -242.666992188 673.333007812 -302.666992188 600 -344 c 0
 540 -378 467.666992188 -395 383 -395 c 0
 293.666992188 -395 212.333007812 -377.666992188 139 -343 c 0
 46.3330078125 -299.666992188 0 -238.333007812 0 -159 c 0
 0 -103.666992188 23 -54.6669921875 69 -12 c 0
 107.666992188 24 156.333007812 51 215 69 c 1
 187 91.6669921875 173 115 173 139 c 0
 173 171 203.333007812 211.333007812 264 260 c 1
 172.666992188 301.333007812 127 376.333007812 127 485 c 0
 127 569.666992188 158 643.833007812 220 707.5 c 0
 282 771.166992188 355.333007812 803 440 803 c 0
 516.666992188 803 581 777.666992188 633 727 c 1
 785 727 l 2
 800.333007812 727 808 720 808 706 c 0
565 586 m 0
 565 675.333007812 525 720 445 720 c 0
 387.666992188 720 341.666992188 688 307 624 c 0
 277.666992188 571.333007812 263 513.666992188 263 451 c 0
 263 362.333007812 303 318 383 318 c 0
 440.333007812 318 486.333007812 349.666992188 521 413 c 0
 550.333007812 465.666992188 565 523.333007812 565 586 c 0
575 -199 m 0
 575 -166.333007812 542 -130.666992188 476 -92 c 0
 433.333007812 -68 369.666992188 -30.6669921875 285 20 c 1
 244.333007812 9.3330078125 209.333007812 -10.3330078125 180 -39 c 0
 147.333007812 -71.6669921875 131 -107.333007812 131 -146 c 0
 131 -201.333007812 164.333007812 -244.333007812 231 -275 c 0
 283.666992188 -299 341.333007812 -311 404 -311 c 0
 446 -311 483 -303 515 -287 c 0
 555 -266.333007812 575 -237 575 -199 c 0
EndSplineSet
EndChar

StartChar: h
Encoding: 104 104 7
Width: 788
Flags: HW
LayerCount: 2
Fore
SplineSet
788 625 m 0
 788 456.333007812 724.333007812 295.333007812 597 142 c 0
 523 52.6669921875 457.333007812 8 400 8 c 0
 341.333007812 8 312 33 312 83 c 0
 312 105 319.333007812 124.166992188 334 140.5 c 0
 348.666992188 156.833007812 366.666992188 165 388 165 c 0
 408.666992188 165 425.666992188 158.666992188 439 146 c 0
 452.333007812 133.333007812 459.666992188 127 461 127 c 0
 474.333007812 127 491 142.666992188 511 174 c 0
 543.666992188 224 572.666992188 288.666992188 598 368 c 0
 624 450 637 519.666992188 637 577 c 0
 637 645.666992188 620.333007812 680 587 680 c 0
 514.333007812 680 425.333007812 600.333007812 320 441 c 0
 232.666992188 309 173.333007812 194 142 96 c 0
 132 63.3330078125 126.666992188 46.6669921875 126 46 c 0
 117.333007812 29.3330078125 103.333007812 21 84 21 c 0
 28 21 0 35.3330078125 0 64 c 0
 0 68 1.6669921875 75.6669921875 5 87 c 2
 309 1137 l 2
 312.333007812 1149 314 1160.33300781 314 1171 c 0
 314 1195 297.666992188 1211.16699219 265 1219.5 c 0
 232.333007812 1227.83300781 216 1237 216 1247 c 0
 216 1274.33300781 227 1292.66699219 249 1302 c 0
 253.666992188 1304 271 1306.33300781 301 1309 c 0
 314.333007812 1310.33300781 333.666992188 1312.66699219 359 1316 c 0
 364.333007812 1317.33300781 383.333007812 1323 416 1333 c 0
 446 1341.66699219 463.333007812 1346 468 1346 c 0
 487.333007812 1346 497 1338 497 1322 c 0
 497 1316.66699219 494.333007812 1305 489 1287 c 2
 253 475 l 1
 399 693.666992188 530.666992188 803 648 803 c 0
 741.333007812 803 788 743.666992188 788 625 c 0
EndSplineSet
EndChar

StartChar: H
Encoding: 72 72 8
Width: 788
Flags: HW
LayerCount: 2
Fore
SplineSet
788 625 m 0
 788 456.333007812 724.333007812 295.333007812 597 142 c 0
 523 52.6669921875 457.333007812 8 400 8 c 0
 341.333007812 8 312 33 312 83 c 0
 312 105 319.333007812 124.166992188 334 140.5 c 0
 348.666992188 156.833007812 366.666992188 165 388 165 c 0
 408.666992188 165 425.666992188 158.666992188 439 146 c 0
 452.333007812 133.333007812 459.666992188 127 461 127 c 0
 474.333007812 127 491 142.666992188 511 174 c 0
 543.666992188 224 572.666992188 288.666992188 598 368 c 0
 624 450 637 519.666992188 637 577 c 0
 637 645.666992188 620.333007812 680 587 680 c 0
 514.333007812 680 425.333007812 600.333007812 320 441 c 0
 232.666992188 309 173.333007812 194 142 96 c 0
 132 63.3330078125 126.666992188 46.6669921875 126 46 c 0
 117.333007812 29.3330078125 103.333007812 21 84 21 c 0
 28 21 0 35.3330078125 0 64 c 0
 0 68 1.6669921875 75.6669921875 5 87 c 2
 309 1137 l 2
 312.333007812 1149 314 1160.33300781 314 1171 c 0
 314 1195 297.666992188 1211.16699219 265 1219.5 c 0
 232.333007812 1227.83300781 216 1237 216 1247 c 0
 216 1274.33300781 227 1292.66699219 249 1302 c 0
 253.666992188 1304 271 1306.33300781 301 1309 c 0
 314.333007812 1310.33300781 333.666992188 1312.66699219 359 1316 c 0
 364.333007812 1317.33300781 383.333007812 1323 416 1333 c 0
 446 1341.66699219 463.333007812 1346 468 1346 c 0
 487.333007812 1346 497 1338 497 1322 c 0
 497 1316.66699219 494.333007812 1305 489 1287 c 2
 253 475 l 1
 399 693.666992188 530.666992188 803 648 803 c 0
 741.333007812 803 788 743.666992188 788 625 c 0
247 -229 m 0
 247 -253 238.333007812 -273.666992188 221 -291 c 0
 203.666992188 -308.333007812 183 -317 159 -317 c 0
 135 -317 114.333007812 -308.333007812 97 -291 c 0
 79.6669921875 -273.666992188 71 -253 71 -229 c 0
 71 -205 79.6669921875 -184.333007812 97 -167 c 0
 114.333007812 -149.666992188 135 -141 159 -141 c 0
 183 -141 203.666992188 -149.666992188 221 -167 c 0
 238.333007812 -184.333007812 247 -205 247 -229 c 0
EndSplineSet
EndChar

StartChar: i
Encoding: 105 105 9
Width: 473
Flags: HW
LayerCount: 2
Fore
SplineSet
473 1139 m 0
 473 1085.66699219 450.666992188 1034.66699219 406 986 c 0
 360.666992188 935.333007812 311.666992188 910 259 910 c 0
 236.333007812 910 225 919.333007812 225 938 c 0
 225 952.666992188 237 966.666992188 261 980 c 0
 297 998.666992188 319.666992188 1012.66699219 329 1022 c 0
 353 1044.66699219 365 1075.66699219 365 1115 c 0
 365 1135 351.5 1159.5 324.5 1188.5 c 0
 297.5 1217.5 284 1242 284 1262 c 0
 284 1294 301.666992188 1310 337 1310 c 0
 378.333007812 1310 412 1291.33300781 438 1254 c 0
 461.333007812 1220.66699219 473 1182.33300781 473 1139 c 0
400 253 m 0
 400 247.666992188 398.333007812 242.333007812 395 237 c 0
 367.666992188 187.666992188 323.666992188 138.666992188 263 90 c 0
 195.666992188 35.3330078125 138 8 90 8 c 0
 30 8 0 34.6669921875 0 88 c 0
 0 115.333007812 8 149.666992188 24 191 c 2
 176 594 l 2
 185.333007812 618 190 636.333007812 190 649 c 0
 190 659 186 664 178 664 c 0
 162.666992188 664 140.333007812 651.166992188 111 625.5 c 0
 81.6669921875 599.833007812 64.6669921875 587 60 587 c 0
 52.6669921875 587 44 591.833007812 34 601.5 c 0
 24 611.166992188 19 619.666992188 19 627 c 0
 19 634.333007812 22 641.666992188 28 649 c 0
 52.6669921875 681.666992188 88.6669921875 714.333007812 136 747 c 0
 190 784.333007812 234 803 268 803 c 0
 320 803 346 779.333007812 346 732 c 0
 346 699.333007812 333.666992188 650.333007812 309 585 c 2
 171 218 l 2
 161 190.666992188 156 172 156 162 c 0
 156 150.666992188 161.666992188 145 173 145 c 0
 203.666992188 145 241.166992188 169.5 285.5 218.5 c 0
 329.833007812 267.5 354 292 358 292 c 0
 364.666992188 292 373.333007812 287.166992188 384 277.5 c 0
 394.666992188 267.833007812 400 259.666992188 400 253 c 0
EndSplineSet
EndChar

StartChar: I
Encoding: 73 73 10
Width: 564
Flags: HW
LayerCount: 2
Fore
SplineSet
564 1148 m 0
 564 1123.33300781 555.5 1102.5 538.5 1085.5 c 0
 521.5 1068.5 500.666992188 1060 476 1060 c 0
 452 1060 431.5 1068.5 414.5 1085.5 c 0
 397.5 1102.5 389 1123.33300781 389 1148 c 0
 389 1172 397.5 1192.5 414.5 1209.5 c 0
 431.5 1226.5 452 1235 476 1235 c 0
 500.666992188 1235 521.5 1226.5 538.5 1209.5 c 0
 555.5 1192.5 564 1172 564 1148 c 0
285 1148 m 0
 285 1123.33300781 276.5 1102.5 259.5 1085.5 c 0
 242.5 1068.5 221.666992188 1060 197 1060 c 0
 173 1060 152.5 1068.5 135.5 1085.5 c 0
 118.5 1102.5 110 1123.33300781 110 1148 c 0
 110 1172 118.5 1192.5 135.5 1209.5 c 0
 152.5 1226.5 173 1235 197 1235 c 0
 221.666992188 1235 242.5 1226.5 259.5 1209.5 c 0
 276.5 1192.5 285 1172 285 1148 c 0
400 253 m 0
 400 247.666992188 398.333007812 242.333007812 395 237 c 0
 367.666992188 187.666992188 323.666992188 138.666992188 263 90 c 0
 195.666992188 35.3330078125 138 8 90 8 c 0
 30 8 0 34.6669921875 0 88 c 0
 0 115.333007812 8 149.666992188 24 191 c 2
 176 594 l 2
 185.333007812 618 190 636.333007812 190 649 c 0
 190 659 186 664 178 664 c 0
 162.666992188 664 140.333007812 651.166992188 111 625.5 c 0
 81.6669921875 599.833007812 64.6669921875 587 60 587 c 0
 52.6669921875 587 44 591.833007812 34 601.5 c 0
 24 611.166992188 19 619.666992188 19 627 c 0
 19 634.333007812 22 641.666992188 28 649 c 0
 52.6669921875 681.666992188 88.6669921875 714.333007812 136 747 c 0
 190 784.333007812 234 803 268 803 c 0
 320 803 346 779.333007812 346 732 c 0
 346 699.333007812 333.666992188 650.333007812 309 585 c 2
 171 218 l 2
 161 190.666992188 156 172 156 162 c 0
 156 150.666992188 161.666992188 145 173 145 c 0
 203.666992188 145 241.166992188 169.5 285.5 218.5 c 0
 329.833007812 267.5 354 292 358 292 c 0
 364.666992188 292 373.333007812 287.166992188 384 277.5 c 0
 394.666992188 267.833007812 400 259.666992188 400 253 c 0
EndSplineSet
EndChar

StartChar: k
Encoding: 107 107 11
Width: 797
Flags: HW
LayerCount: 2
Fore
SplineSet
797 664 m 0
 797 645.333007812 794.666992188 629 790 615 c 0
 748 485.666992188 624.666992188 411 420 391 c 1
 444 363 463.333007812 330.666992188 478 294 c 0
 499.333007812 240.666992188 511.666992188 211 515 205 c 0
 535 165 556 145 578 145 c 0
 606.666992188 145 638.833007812 163.333007812 674.5 200 c 0
 710.166992188 236.666992188 730.333007812 255 735 255 c 0
 743 255 752.833007812 249.5 764.5 238.5 c 0
 776.166992188 227.5 782 218 782 210 c 0
 782 204.666992188 779 197.666992188 773 189 c 0
 687 68.3330078125 604.333007812 8 525 8 c 0
 483.666992188 8 446.666992188 35 414 89 c 0
 402.666992188 108.333007812 378 163.333007812 340 254 c 0
 311.333007812 321.333007812 284.666992188 363.666992188 260 381 c 0
 254 385.666992188 244 390.666992188 230 396 c 1
 126 39 l 2
 120.666992188 21.6669921875 109.666992188 13 93 13 c 0
 75.6669921875 13 57.3330078125 16.3330078125 38 23 c 0
 12.6669921875 31 0 42 0 56 c 0
 0 60.6669921875 0.3330078125 64.3330078125 1 67 c 2
 305 1110 l 2
 311 1132.66699219 314 1152.33300781 314 1169 c 0
 314 1195 300 1212.16699219 272 1220.5 c 0
 244 1228.83300781 230 1237.66699219 230 1247 c 0
 230 1274.33300781 241.666992188 1292.66699219 265 1302 c 1
 287.666992188 1304.66699219 321.333007812 1309.33300781 366 1316 c 0
 382 1319.33300781 406.333007812 1326.33300781 439 1337 c 0
 456.333007812 1343 466 1346 468 1346 c 0
 487.333007812 1346 497 1338 497 1322 c 0
 497 1313.33300781 495 1301.33300781 491 1286 c 2
 295 619 l 1
 414.333007812 739.666992188 527.333007812 800 634 800 c 0
 678 800 715.333007812 788.666992188 746 766 c 0
 780 740.666992188 797 706.666992188 797 664 c 0
647 621 m 0
 647 660.333007812 625.333007812 680 582 680 c 0
 485.333007812 680 378.333007812 612 261 476 c 1
 292.333007812 471.333007812 324.666992188 469 358 469 c 0
 422.666992188 469 482 479.333007812 536 500 c 0
 610 527.333007812 647 567.666992188 647 621 c 0
EndSplineSet
EndChar

StartChar: K
Encoding: 75 75 12
Width: 797
Flags: HW
LayerCount: 2
Fore
SplineSet
797 664 m 0
 797 645.333007812 794.666992188 629 790 615 c 0
 748 485.666992188 624.666992188 411 420 391 c 1
 444 363 463.333007812 330.666992188 478 294 c 0
 499.333007812 240.666992188 511.666992188 211 515 205 c 0
 535 165 556 145 578 145 c 0
 606.666992188 145 638.833007812 163.333007812 674.5 200 c 0
 710.166992188 236.666992188 730.333007812 255 735 255 c 0
 743 255 752.833007812 249.5 764.5 238.5 c 0
 776.166992188 227.5 782 218 782 210 c 0
 782 204.666992188 779 197.666992188 773 189 c 0
 687 68.3330078125 604.333007812 8 525 8 c 0
 483.666992188 8 446.666992188 35 414 89 c 0
 402.666992188 108.333007812 378 163.333007812 340 254 c 0
 311.333007812 321.333007812 284.666992188 363.666992188 260 381 c 0
 254 385.666992188 244 390.666992188 230 396 c 1
 126 39 l 2
 120.666992188 21.6669921875 109.666992188 13 93 13 c 0
 75.6669921875 13 57.3330078125 16.3330078125 38 23 c 0
 12.6669921875 31 0 42 0 56 c 0
 0 60.6669921875 0.3330078125 64.3330078125 1 67 c 2
 305 1110 l 2
 311 1132.66699219 314 1152.33300781 314 1169 c 0
 314 1195 300 1212.16699219 272 1220.5 c 0
 244 1228.83300781 230 1237.66699219 230 1247 c 0
 230 1274.33300781 241.666992188 1292.66699219 265 1302 c 1
 287.666992188 1304.66699219 321.333007812 1309.33300781 366 1316 c 0
 382 1319.33300781 406.333007812 1326.33300781 439 1337 c 0
 456.333007812 1343 466 1346 468 1346 c 0
 487.333007812 1346 497 1338 497 1322 c 0
 497 1313.33300781 495 1301.33300781 491 1286 c 2
 295 619 l 1
 414.333007812 739.666992188 527.333007812 800 634 800 c 0
 678 800 715.333007812 788.666992188 746 766 c 0
 780 740.666992188 797 706.666992188 797 664 c 0
600 -224 m 0
 600 -238 596 -255 588 -275 c 0
 579.333007812 -298.333007812 569.333007812 -310 558 -310 c 2
 28 -310 l 2
 10.6669921875 -310 2 -301.666992188 2 -285 c 0
 2 -271.666992188 5.6669921875 -255.333007812 13 -236 c 0
 22.3330078125 -212.666992188 32.3330078125 -201 43 -201 c 2
 572 -201 l 2
 590.666992188 -201 600 -208.666992188 600 -224 c 0
647 621 m 0
 647 660.333007812 625.333007812 680 582 680 c 0
 485.333007812 680 378.333007812 612 261 476 c 1
 292.333007812 471.333007812 324.666992188 469 358 469 c 0
 422.666992188 469 482 479.333007812 536 500 c 0
 610 527.333007812 647 567.666992188 647 621 c 0
EndSplineSet
EndChar

StartChar: l
Encoding: 108 108 13
Width: 482
Flags: HW
LayerCount: 2
Fore
SplineSet
482 1322 m 0
 482 1318 481 1313.66699219 479 1309 c 2
 161 217 l 2
 156.333007812 200.333007812 154 186 154 174 c 0
 154 154.666992188 160 145 172 145 c 0
 190.666992188 145 223 169.666992188 269 219 c 0
 315 268.333007812 341.666992188 293 349 293 c 0
 356.333007812 293 364.333007812 288.333007812 373 279 c 0
 381.666992188 269.666992188 386 261.333007812 386 254 c 0
 386 230 343.666992188 183 259 113 c 0
 174.333007812 43 115.333007812 8 82 8 c 0
 27.3330078125 8 0 33.6669921875 0 85 c 0
 0 112.333007812 6.3330078125 147.666992188 19 191 c 2
 293 1137 l 2
 297 1151 299 1163.66699219 299 1175 c 0
 299 1197 284.333007812 1212 255 1220 c 0
 225.666992188 1228 211 1237 211 1247 c 0
 211 1276.33300781 222.666992188 1294.66699219 246 1302 c 1
 268.666992188 1304.66699219 302.666992188 1309.33300781 348 1316 c 0
 366.666992188 1320 391 1327 421 1337 c 0
 431 1339.66699219 441 1342.66699219 451 1346 c 1
 471.666992188 1346 482 1338 482 1322 c 0
EndSplineSet
EndChar

StartChar: m
Encoding: 109 109 14
Width: 1274
Flags: HW
LayerCount: 2
Fore
SplineSet
1274 257 m 0
 1274 230.333007812 1227.33300781 182.166992188 1134 112.5 c 0
 1040.66699219 42.8330078125 979 8 949 8 c 0
 900.333007812 8 876 28.6669921875 876 70 c 0
 876 96 887.333007812 136.333007812 910 191 c 2
 1056 542 l 2
 1074 586 1083 620 1083 644 c 0
 1083 670.666992188 1064.33300781 684 1027 684 c 0
 963.666992188 684 891.666992188 637.666992188 811 545 c 0
 746.333007812 470.333007812 697.333007812 394.666992188 664 318 c 1
 642.666992188 254.666992188 606.666992188 161 556 37 c 0
 547.333007812 19.6669921875 536 11 522 11 c 0
 459.333007812 11 428 25.6669921875 428 55 c 0
 428 59.6669921875 428.666992188 64.3330078125 430 69 c 2
 563 413 l 2
 600.333007812 507.666992188 619 576.666992188 619 620 c 0
 619 662.666992188 604.333007812 684 575 684 c 0
 521 684 456 635.666992188 380 539 c 0
 321.333007812 464.333007812 276 390.666992188 244 318 c 0
 222 268 193.333007812 198.333007812 158 109 c 0
 128.666992188 36.3330078125 106.666992188 0 92 0 c 0
 72 0 48.3330078125 8 21 24 c 0
 7 32 0 42 0 54 c 0
 0 59.3330078125 1.3330078125 64.6669921875 4 70 c 2
 178 490 l 2
 204.666992188 555.333007812 218 602.333007812 218 631 c 0
 218 654.333007812 209 666 191 666 c 0
 174.333007812 666 151.333007812 643.333007812 122 598 c 0
 92.6669921875 552.666992188 73.6669921875 530 65 530 c 0
 59.6669921875 530 51.3330078125 533.666992188 40 541 c 0
 28.6669921875 548.333007812 23 554.666992188 23 560 c 0
 23 586.666992188 52.6669921875 633.5 112 700.5 c 0
 171.333007812 767.5 214.333007812 801 241 801 c 0
 301 801 331 766 331 696 c 0
 331 662 324.333007812 622.666992188 311 578 c 1
 437.666992188 728 550.333007812 803 649 803 c 0
 715 803 748 761.333007812 748 678 c 0
 748 654 744.333007812 622.666992188 737 584 c 1
 874.333007812 730 993.666992188 803 1095 803 c 0
 1179 803 1221 758.333007812 1221 669 c 0
 1221 631 1211 587.666992188 1191 539 c 2
 1043 182 l 2
 1039 172 1037 161.333007812 1037 150 c 0
 1037.66699219 147.333007812 1038.66699219 145.666992188 1040 145 c 0
 1056.66699219 145 1091.33300781 169.833007812 1144 219.5 c 0
 1196.66699219 269.166992188 1228 294 1238 294 c 0
 1238.66699219 294 1242 293 1248 291 c 0
 1265.33300781 275.666992188 1274 264.333007812 1274 257 c 0
EndSplineSet
EndChar

StartChar: M
Encoding: 77 77 15
Width: 1274
Flags: HW
LayerCount: 2
Fore
SplineSet
1274 257 m 0
 1274 230.333007812 1227.33300781 182.166992188 1134 112.5 c 0
 1040.66699219 42.8330078125 979 8 949 8 c 0
 900.333007812 8 876 28.6669921875 876 70 c 0
 876 96 887.333007812 136.333007812 910 191 c 2
 1056 542 l 2
 1074 586 1083 620 1083 644 c 0
 1083 670.666992188 1064.33300781 684 1027 684 c 0
 963.666992188 684 891.666992188 637.666992188 811 545 c 0
 746.333007812 470.333007812 697.333007812 394.666992188 664 318 c 1
 642.666992188 254.666992188 606.666992188 161 556 37 c 0
 547.333007812 19.6669921875 536 11 522 11 c 0
 459.333007812 11 428 25.6669921875 428 55 c 0
 428 59.6669921875 428.666992188 64.3330078125 430 69 c 2
 563 413 l 2
 600.333007812 507.666992188 619 576.666992188 619 620 c 0
 619 662.666992188 604.333007812 684 575 684 c 0
 521 684 456 635.666992188 380 539 c 0
 321.333007812 464.333007812 276 390.666992188 244 318 c 0
 222 268 193.333007812 198.333007812 158 109 c 0
 128.666992188 36.3330078125 106.666992188 0 92 0 c 0
 72 0 48.3330078125 8 21 24 c 0
 7 32 0 42 0 54 c 0
 0 59.3330078125 1.3330078125 64.6669921875 4 70 c 2
 178 490 l 2
 204.666992188 555.333007812 218 602.333007812 218 631 c 0
 218 654.333007812 209 666 191 666 c 0
 174.333007812 666 151.333007812 643.333007812 122 598 c 0
 92.6669921875 552.666992188 73.6669921875 530 65 530 c 0
 59.6669921875 530 51.3330078125 533.666992188 40 541 c 0
 28.6669921875 548.333007812 23 554.666992188 23 560 c 0
 23 586.666992188 52.6669921875 633.5 112 700.5 c 0
 171.333007812 767.5 214.333007812 801 241 801 c 0
 301 801 331 766 331 696 c 0
 331 662 324.333007812 622.666992188 311 578 c 1
 437.666992188 728 550.333007812 803 649 803 c 0
 715 803 748 761.333007812 748 678 c 0
 748 654 744.333007812 622.666992188 737 584 c 1
 874.333007812 730 993.666992188 803 1095 803 c 0
 1179 803 1221 758.333007812 1221 669 c 0
 1221 631 1211 587.666992188 1191 539 c 2
 1043 182 l 2
 1039 172 1037 161.333007812 1037 150 c 0
 1037.66699219 147.333007812 1038.66699219 145.666992188 1040 145 c 0
 1057.33300781 145 1092.16699219 169.833007812 1144.5 219.5 c 0
 1196.83300781 269.166992188 1228 294 1238 294 c 0
 1238.66699219 294 1242 293 1248 291 c 0
 1265.33300781 275.666992188 1274 264.333007812 1274 257 c 0
870 -224 m 0
 870 -238 866 -255 858 -275 c 0
 848.666992188 -298.333007812 838.666992188 -310 828 -310 c 2
 122 -310 l 2
 104 -310 95 -301.666992188 95 -285 c 0
 95 -271.666992188 98.6669921875 -255.333007812 106 -236 c 0
 115.333007812 -212.666992188 125.333007812 -201 136 -201 c 2
 842 -201 l 2
 860.666992188 -201 870 -208.666992188 870 -224 c 0
EndSplineSet
EndChar

StartChar: n
Encoding: 110 110 16
Width: 838
Flags: HW
LayerCount: 2
Fore
SplineSet
838 254 m 0
 838 248.666992188 835 242.333007812 829 235 c 0
 789.666992188 187 742.333007812 140.333007812 687 95 c 0
 615.666992188 37 559.666992188 8 519 8 c 0
 471.666992188 8 448 29.3330078125 448 72 c 0
 448 98.6669921875 458.666992188 138.333007812 480 191 c 2
 631 576 l 2
 640.333007812 599.333007812 645 620 645 638 c 0
 645 666 633.666992188 680 611 680 c 0
 541.666992188 680 459.666992188 620.333007812 365 501 c 0
 290.333007812 405.666992188 234.333007812 313 197 223 c 1
 183 180.333007812 158.666992188 117.666992188 124 35 c 0
 112.666992188 13.6669921875 98.6669921875 3 82 3 c 0
 66 3 49.3330078125 8 32 18 c 0
 12.6669921875 29.3330078125 3 42.6669921875 3 58 c 0
 3 65.3330078125 4.3330078125 72.6669921875 7 80 c 2
 147 431 l 2
 185.666992188 529 205 597 205 635 c 0
 205 655.666992188 199 666 187 666 c 0
 162.333007812 666 135.333007812 643 106 597 c 0
 76.6669921875 551 58 528 50 528 c 0
 40 528 29.1669921875 531.833007812 17.5 539.5 c 0
 5.8330078125 547.166992188 0 555.666992188 0 565 c 0
 0 569 1.3330078125 573.333007812 4 578 c 0
 24.6669921875 622 56 667.333007812 98 714 c 0
 149.333007812 772 192.666992188 801 228 801 c 0
 285.333007812 801 314 762.333007812 314 685 c 0
 314 652.333007812 309 612.666992188 299 566 c 1
 430.333007812 724 553.666992188 803 669 803 c 0
 753.666992188 803 796 763.666992188 796 685 c 0
 796 661.666992188 789.333007812 633 776 599 c 2
 625 219 l 2
 615 193 610 172 610 156 c 0
 610 148.666992188 611.666992188 145 615 145 c 0
 635 145 668.166992188 169.833007812 714.5 219.5 c 0
 760.833007812 269.166992188 788.666992188 294 798 294 c 0
 804.666992188 294 813 289 823 279 c 0
 833 269 838 260.666992188 838 254 c 0
EndSplineSet
EndChar

StartChar: N
Encoding: 78 78 17
Width: 876
Flags: HW
LayerCount: 2
Fore
SplineSet
876 254 m 0
 876 248.666992188 873 242.333007812 867 235 c 0
 827.666992188 187 780.333007812 140.333007812 725 95 c 0
 653.666992188 37 597.666992188 8 557 8 c 0
 509.666992188 8 486 29.3330078125 486 72 c 0
 486 98.6669921875 496.666992188 138.333007812 518 191 c 2
 669 576 l 2
 678.333007812 599.333007812 683 620 683 638 c 0
 683 666 671.666992188 680 649 680 c 0
 579.666992188 680 497.666992188 620.333007812 403 501 c 0
 328.333007812 405.666992188 272.333007812 313 235 223 c 1
 221 180.333007812 196.666992188 117.666992188 162 35 c 0
 150.666992188 13.6669921875 136.666992188 3 120 3 c 0
 104 3 87.3330078125 8 70 18 c 0
 50.6669921875 29.3330078125 41 42.6669921875 41 58 c 0
 41 65.3330078125 42.3330078125 72.6669921875 45 80 c 2
 185 431 l 2
 223.666992188 529 243 597 243 635 c 0
 243 655.666992188 237 666 225 666 c 0
 200.333007812 666 173.333007812 643 144 597 c 0
 114.666992188 551 96 528 88 528 c 0
 78 528 67.1669921875 531.833007812 55.5 539.5 c 0
 43.8330078125 547.166992188 38 555.666992188 38 565 c 0
 38 569 39.3330078125 573.333007812 42 578 c 0
 62.6669921875 622 94 667.333007812 136 714 c 0
 187.333007812 772 230.666992188 801 266 801 c 0
 323.333007812 801 352 762.333007812 352 685 c 0
 352 652.333007812 347 612.666992188 337 566 c 1
 468.333007812 724 591.666992188 803 707 803 c 0
 791.666992188 803 834 763.666992188 834 685 c 0
 834 661.666992188 827.333007812 633 814 599 c 2
 663 219 l 2
 653 193 648 172 648 156 c 0
 648 148.666992188 649.666992188 145 653 145 c 0
 673 145 706.166992188 169.833007812 752.5 219.5 c 0
 798.833007812 269.166992188 826.666992188 294 836 294 c 0
 842.666992188 294 851 289 861 279 c 0
 871 269 876 260.666992188 876 254 c 0
654 -224 m 0
 654 -238 650 -255 642 -275 c 0
 632.666992188 -298.333007812 622.333007812 -310 611 -310 c 2
 26 -310 l 2
 8.6669921875 -310 0 -301.666992188 0 -285 c 0
 0 -271.666992188 3.6669921875 -255.333007812 11 -236 c 0
 20.3330078125 -212.666992188 30.3330078125 -201 41 -201 c 2
 626 -201 l 2
 644.666992188 -201 654 -208.666992188 654 -224 c 0
EndSplineSet
EndChar

StartChar: p
Encoding: 112 112 18
Width: 915
Flags: HW
LayerCount: 2
Fore
SplineSet
915 594 m 0
 915 550.666992188 908.666992188 508.333007812 896 467 c 0
 863.333007812 359.666992188 801.666992188 257 711 159 c 0
 617.666992188 58.3330078125 535 8 463 8 c 0
 417 8 379.666992188 24.3330078125 351 57 c 1
 267 -232 l 2
 262.333007812 -248 260 -261.333007812 260 -272 c 0
 260 -299.333007812 279.166992188 -315 317.5 -319 c 0
 355.833007812 -323 375 -330.666992188 375 -342 c 0
 375 -354 371.333007812 -366.666992188 364 -380 c 0
 356 -395.333007812 346.333007812 -403 335 -403 c 2
 286 -397.5 l 1
 183 -392 l 2
 146.333007812 -392 110.833007812 -393.833007812 76.5 -397.5 c 0
 42.1669921875 -401.166992188 24.3330078125 -403 23 -403 c 0
 7.6669921875 -403 0 -395 0 -379 c 0
 0 -369.666992188 3.3330078125 -357.666992188 10 -343 c 0
 15.3330078125 -331 26.3330078125 -323.333007812 43 -320 c 0
 65 -316.666992188 80.3330078125 -311.666992188 89 -305 c 0
 107.666992188 -291 122.666992188 -264.333007812 134 -225 c 2
 385 647 l 1
 341 635 286.333007812 615 221 587 c 0
 217.666992188 585.666992188 214 585 210 585 c 0
 186 585 174 599 174 627 c 0
 174 637.666992188 179 647.333007812 189 656 c 0
 213 676 288 705.333007812 414 744 c 1
 450 866 l 2
 457.333007812 890 470.333007812 904.333007812 489 909 c 0
 492.333007812 909.666992188 513 910 551 910 c 0
 575 910 587 901 587 883 c 0
 587 867 578.333007812 833 561 781 c 1
 627.666992188 795.666992188 686 803 736 803 c 0
 792 803 836.333007812 781.666992188 869 739 c 0
 899.666992188 700.333007812 915 652 915 594 c 0
766 551 m 0
 766 589.666992188 756.666992188 621.666992188 738 647 c 0
 716.666992188 676.333007812 687.333007812 691 650 691 c 0
 618 691 578.333007812 686.666992188 531 678 c 1
 396 213 l 2
 394 205 393 194.333007812 393 181 c 0
 393 121 415.333007812 91 460 91 c 0
 502.666992188 91 555.333007812 130 618 208 c 0
 716.666992188 332 766 446.333007812 766 551 c 0
EndSplineSet
EndChar

StartChar: q
Encoding: 113 113 19
Width: 797
Flags: HW
LayerCount: 2
Fore
SplineSet
797 664 m 0
 797 645.333007812 794.666992188 629 790 615 c 0
 748 485.666992188 624.666992188 411 420 391 c 1
 444 363 463.333007812 330.666992188 478 294 c 0
 499.333007812 240.666992188 511.666992188 211 515 205 c 0
 535 165 556 145 578 145 c 0
 606.666992188 145 638.833007812 163.333007812 674.5 200 c 0
 710.166992188 236.666992188 730.333007812 255 735 255 c 0
 743 255 752.833007812 249.5 764.5 238.5 c 0
 776.166992188 227.5 782 218 782 210 c 0
 782 204.666992188 779 197.666992188 773 189 c 0
 687 68.3330078125 604.333007812 8 525 8 c 0
 483.666992188 8 446.666992188 35 414 89 c 0
 402.666992188 108.333007812 378 163.333007812 340 254 c 0
 311.333007812 321.333007812 284.666992188 363.666992188 260 381 c 0
 254 385.666992188 244 390.666992188 230 396 c 1
 126 39 l 2
 120.666992188 21.6669921875 109.666992188 13 93 13 c 0
 75.6669921875 13 57.3330078125 16.3330078125 38 23 c 0
 12.6669921875 31 0 42 0 56 c 0
 0 60.6669921875 0.3330078125 64.3330078125 1 67 c 2
 305 1110 l 2
 311 1132.66699219 314 1152.33300781 314 1169 c 0
 314 1195 300 1212.16699219 272 1220.5 c 0
 244 1228.83300781 230 1237.66699219 230 1247 c 0
 230 1274.33300781 241.666992188 1292.66699219 265 1302 c 1
 287.666992188 1304.66699219 321.333007812 1309.33300781 366 1316 c 0
 382 1319.33300781 406.333007812 1326.33300781 439 1337 c 0
 456.333007812 1343 466 1346 468 1346 c 0
 487.333007812 1346 497 1338 497 1322 c 0
 497 1313.33300781 495 1301.33300781 491 1286 c 2
 295 619 l 1
 414.333007812 739.666992188 527.333007812 800 634 800 c 0
 678 800 715.333007812 788.666992188 746 766 c 0
 780 740.666992188 797 706.666992188 797 664 c 0
285 -229 m 0
 285 -253 276.5 -273.666992188 259.5 -291 c 0
 242.5 -308.333007812 222 -317 198 -317 c 0
 173.333007812 -317 152.5 -308.333007812 135.5 -291 c 0
 118.5 -273.666992188 110 -253 110 -229 c 0
 110 -205 118.5 -184.333007812 135.5 -167 c 0
 152.5 -149.666992188 173.333007812 -141 198 -141 c 0
 222 -141 242.5 -149.666992188 259.5 -167 c 0
 276.5 -184.333007812 285 -205 285 -229 c 0
647 621 m 0
 647 660.333007812 625.333007812 680 582 680 c 0
 485.333007812 680 378.333007812 612 261 476 c 1
 292.333007812 471.333007812 324.666992188 469 358 469 c 0
 422.666992188 469 482 479.333007812 536 500 c 0
 610 527.333007812 647 567.666992188 647 621 c 0
EndSplineSet
EndChar

StartChar: r
Encoding: 114 114 20
Width: 667
Flags: HW
LayerCount: 2
Fore
SplineSet
667 704 m 0
 667 678 659 655.333007812 643 636 c 0
 627 616.666992188 606.333007812 607 581 607 c 0
 565.666992188 607 550.833007812 613.5 536.5 626.5 c 0
 522.166992188 639.5 510.333007812 646 501 646 c 0
 497.666992188 646 485 634.333007812 463 611 c 0
 369.666992188 511 297.666992188 391.333007812 247 252 c 1
 233 205.333007812 209.333007812 136.333007812 176 45 c 0
 166 20.3330078125 151.666992188 8 133 8 c 0
 115.666992188 8 98.6669921875 12.3330078125 82 21 c 0
 62.6669921875 31 53 44 53 60 c 0
 53 66 54.6669921875 73.6669921875 58 83 c 2
 176 420 l 2
 202.666992188 497.333007812 216 560 216 608 c 0
 216 646.666992188 206 666 186 666 c 0
 154 666 123.166992188 646.333007812 93.5 607 c 0
 63.8330078125 567.666992188 47.3330078125 548 44 548 c 0
 37.3330078125 548 28.3330078125 552.333007812 17 561 c 0
 5.6669921875 569.666992188 0 577 0 583 c 0
 0 588.333007812 1.6669921875 594 5 600 c 0
 27.6669921875 641.333007812 57.6669921875 682.333007812 95 723 c 0
 142.333007812 775 182.666992188 801 216 801 c 0
 286 801 321 750.666992188 321 650 c 0
 321 614.666992188 317 575.666992188 309 533 c 1
 425 713 514 803 576 803 c 0
 601.333007812 803 622.833007812 793 640.5 773 c 0
 658.166992188 753 667 730 667 704 c 0
EndSplineSet
EndChar

StartChar: R
Encoding: 82 82 21
Width: 729
Flags: HW
LayerCount: 2
Fore
SplineSet
729 704 m 0
 729 678 721 655.333007812 705 636 c 0
 689 616.666992188 668.333007812 607 643 607 c 0
 627.666992188 607 612.833007812 613.5 598.5 626.5 c 0
 584.166992188 639.5 572.333007812 646 563 646 c 0
 559.666992188 646 547 634.333007812 525 611 c 0
 431.666992188 511 359.666992188 391.333007812 309 252 c 1
 295 205.333007812 271.333007812 136.333007812 238 45 c 0
 228 20.3330078125 213.666992188 8 195 8 c 0
 177.666992188 8 160.666992188 12.3330078125 144 21 c 0
 124.666992188 31 115 44 115 60 c 0
 115 66 116.666992188 73.6669921875 120 83 c 2
 238 420 l 2
 264.666992188 497.333007812 278 560 278 608 c 0
 278 646.666992188 268 666 248 666 c 0
 216 666 185.166992188 646.333007812 155.5 607 c 0
 125.833007812 567.666992188 109.333007812 548 106 548 c 0
 99.3330078125 548 90.3330078125 552.333007812 79 561 c 0
 67.6669921875 569.666992188 62 577 62 583 c 0
 62 588.333007812 63.6669921875 594 67 600 c 0
 89.6669921875 641.333007812 119.666992188 682.333007812 157 723 c 0
 204.333007812 775 244.666992188 801 278 801 c 0
 348 801 383 750.666992188 383 650 c 0
 383 614.666992188 379 575.666992188 371 533 c 1
 487 713 576 803 638 803 c 0
 663.333007812 803 684.833007812 793 702.5 773 c 0
 720.166992188 753 729 730 729 704 c 0
533 -224 m 0
 533 -238 529 -255 521 -275 c 0
 512.333007812 -298.333007812 502.333007812 -310 491 -310 c 2
 26 -310 l 2
 8.6669921875 -310 0 -301.666992188 0 -285 c 0
 0 -271.666992188 3.6669921875 -255.333007812 11 -236 c 0
 20.3330078125 -212.666992188 30.3330078125 -201 41 -201 c 2
 505 -201 l 2
 523.666992188 -201 533 -208.666992188 533 -224 c 0
EndSplineSet
EndChar

StartChar: s
Encoding: 115 115 22
Width: 519
Flags: HW
LayerCount: 2
Fore
SplineSet
519 712 m 0
 519 664.666992188 494.666992188 641 446 641 c 0
 429.333007812 641 408.333007812 649 383 665 c 0
 357.666992188 681 338.666992188 689 326 689 c 0
 304 689 283 684 263 674 c 0
 238.333007812 662.666992188 226 647.333007812 226 628 c 0
 226 602 262.5 551.333007812 335.5 476 c 0
 408.5 400.666992188 445 338.333007812 445 289 c 0
 445 223.666992188 412.333007812 160.5 347 99.5 c 0
 281.666992188 38.5 215 8 147 8 c 0
 109 8 76 17 48 35 c 0
 16 55.6669921875 0 84 0 120 c 0
 0 169.333007812 20 194 60 194 c 0
 80.6669921875 194 105.666992188 181.666992188 135 157 c 0
 164.333007812 132.333007812 189 120 209 120 c 0
 235.666992188 120 261.5 128.833007812 286.5 146.5 c 0
 311.5 164.166992188 324 185.666992188 324 211 c 0
 324 236.333007812 287.5 287.166992188 214.5 363.5 c 0
 141.5 439.833007812 105 504.666992188 105 558 c 0
 105 564.666992188 106.666992188 574.666992188 110 588 c 0
 124 651.333007812 154.166992188 703 200.5 743 c 0
 246.833007812 783 301.666992188 803 365 803 c 0
 401 803 433.333007812 796.666992188 462 784 c 0
 500 768 519 744 519 712 c 0
EndSplineSet
EndChar

StartChar: S
Encoding: 83 83 23
Width: 642
Flags: HW
LayerCount: 2
Fore
SplineSet
642 1277 m 0
 642 1271 639.666992188 1264.66699219 635 1258 c 2
 437 979 l 2
 419.666992188 955 398.333007812 943 373 943 c 0
 348.333007812 943 332.333007812 955.666992188 325 981 c 0
 268.333007812 1170.33300781 240 1266.66699219 240 1270 c 0
 240 1290 247 1300 261 1300 c 0
 268.333007812 1300 273.666992188 1297.33300781 277 1292 c 2
 390 1091 l 1
 605 1293 l 2
 609.666992188 1297.66699219 615 1300 621 1300 c 0
 635 1300 642 1292.33300781 642 1277 c 0
519 712 m 0
 519 664.666992188 494.666992188 641 446 641 c 0
 429.333007812 641 408.333007812 649 383 665 c 0
 357.666992188 681 338.666992188 689 326 689 c 0
 304 689 283 684 263 674 c 0
 238.333007812 662.666992188 226 647.333007812 226 628 c 0
 226 602 262.5 551.333007812 335.5 476 c 0
 408.5 400.666992188 445 338.333007812 445 289 c 0
 445 223.666992188 412.333007812 160.5 347 99.5 c 0
 281.666992188 38.5 215 8 147 8 c 0
 109 8 76 17 48 35 c 0
 16 55.6669921875 0 84 0 120 c 0
 0 169.333007812 20 194 60 194 c 0
 80.6669921875 194 105.666992188 181.666992188 135 157 c 0
 164.333007812 132.333007812 189 120 209 120 c 0
 235.666992188 120 261.5 128.833007812 286.5 146.5 c 0
 311.5 164.166992188 324 185.666992188 324 211 c 0
 324 236.333007812 287.5 287.166992188 214.5 363.5 c 0
 141.5 439.833007812 105 504.666992188 105 558 c 0
 105 564.666992188 106.666992188 574.666992188 110 588 c 0
 124 651.333007812 154.166992188 703 200.5 743 c 0
 246.833007812 783 301.666992188 803 365 803 c 0
 401 803 433.333007812 796.666992188 462 784 c 0
 500 768 519 744 519 712 c 0
EndSplineSet
EndChar

StartChar: t
Encoding: 116 116 24
Width: 490
Flags: HW
LayerCount: 2
Fore
SplineSet
490 757 m 0
 490 745.666992188 485.666992188 731.666992188 477 715 c 0
 467.666992188 695.666992188 458 686 448 686 c 2
 290 686 l 1
 157 230 l 2
 150.333007812 207.333007812 147 188.666992188 147 174 c 0
 147 154.666992188 154 145 168 145 c 0
 204.666992188 145 247.833007812 161.166992188 297.5 193.5 c 0
 347.166992188 225.833007812 371.666992188 242 371 242 c 1
 377 242 385 237 395 227 c 0
 405 217 410 209.333007812 410 204 c 0
 410 197.333007812 406 190 398 182 c 0
 280 66 181.666992188 8 103 8 c 0
 34.3330078125 8 0 38.6669921875 0 100 c 0
 0 122 4.3330078125 147.333007812 13 176 c 2
 160 686 l 1
 52 686 l 2
 36.6669921875 686 29 693.333007812 29 708 c 0
 29 720.666992188 33 735 41 751 c 0
 50.3330078125 769.666992188 60.3330078125 779 71 779 c 2
 187 779 l 1
 226 915 l 2
 232 935 245.666992188 945 267 945 c 2
 328 945 l 2
 346.666992188 945 356 936.666992188 356 920 c 0
 356 909.333007812 343 862.333007812 317 779 c 1
 468 779 l 2
 482.666992188 779 490 771.666992188 490 757 c 0
EndSplineSet
EndChar

StartChar: T
Encoding: 84 84 25
Width: 618
Flags: HW
LayerCount: 2
Fore
SplineSet
618 757 m 0
 618 745.666992188 613.666992188 731.666992188 605 715 c 0
 595.666992188 695.666992188 586 686 576 686 c 2
 418 686 l 1
 285 230 l 2
 278.333007812 207.333007812 275 188.666992188 275 174 c 0
 275 154.666992188 282 145 296 145 c 0
 332.666992188 145 375.833007812 161.166992188 425.5 193.5 c 0
 475.166992188 225.833007812 499.666992188 242 499 242 c 1
 505 242 513 237 523 227 c 0
 533 217 538 209.333007812 538 204 c 0
 538 197.333007812 534 190 526 182 c 0
 408 66 309.666992188 8 231 8 c 0
 162.333007812 8 128 38.6669921875 128 100 c 0
 128 122 132.333007812 147.333007812 141 176 c 2
 288 686 l 1
 180 686 l 2
 164.666992188 686 157 693.333007812 157 708 c 0
 157 720.666992188 161 735 169 751 c 0
 178.333007812 769.666992188 188.333007812 779 199 779 c 2
 315 779 l 1
 354 915 l 2
 360 935 373.666992188 945 395 945 c 2
 456 945 l 2
 474.666992188 945 484 936.666992188 484 920 c 0
 484 909.333007812 471 862.333007812 445 779 c 1
 596 779 l 2
 610.666992188 779 618 771.666992188 618 757 c 0
477 -224 m 0
 477 -238 473 -255 465 -275 c 0
 455.666992188 -298.333007812 445.666992188 -310 435 -310 c 2
 26 -310 l 2
 8.6669921875 -310 0 -301.666992188 0 -285 c 0
 0 -271.666992188 3.6669921875 -255.333007812 11 -236 c 0
 20.3330078125 -212.666992188 30.3330078125 -201 41 -201 c 2
 449 -201 l 2
 467.666992188 -201 477 -208.666992188 477 -224 c 0
EndSplineSet
EndChar

StartChar: w
Encoding: 119 119 26
Width: 1168
Flags: HW
LayerCount: 2
Fore
SplineSet
1168 679 m 0
 1168 532.333007812 1118 384.333007812 1018 235 c 0
 916.666992188 83.6669921875 815.666992188 8 715 8 c 0
 649 8 599.333007812 44.6669921875 566 118 c 1
 486.666992188 44.6669921875 414.333007812 8 349 8 c 0
 295 8 250.833007812 25 216.5 59 c 0
 182.166992188 93 165 136.666992188 165 190 c 0
 165 351.333007812 233.333007812 508.666992188 370 662 c 1
 192 662 l 2
 173.333007812 662 155 656.333007812 137 645 c 0
 117 633 107 618 107 600 c 0
 107 597.333007812 116 565.333007812 134 504 c 1
 126 466.666992188 102.333007812 448 63 448 c 0
 45.6669921875 448 30.8330078125 454.833007812 18.5 468.5 c 0
 6.1669921875 482.166992188 0 497.666992188 0 515 c 0
 0 559.666992188 21.6669921875 615.333007812 65 682 c 0
 111 752.666992188 154 788 194 788 c 0
 212 788 238.5 786.666992188 273.5 784 c 0
 308.5 781.333007812 334.666992188 780 352 780 c 0
 368.666992188 780 393.5 781.333007812 426.5 784 c 0
 459.5 786.666992188 484 788 500 788 c 0
 522.666992188 788 534 779.666992188 534 763 c 0
 534 754.333007812 529.666992188 745.333007812 521 736 c 0
 377 584.666992188 305 427 305 263 c 0
 305 231.666992188 312.333007812 204.666992188 327 182 c 0
 344.333007812 155.333007812 367.666992188 142 397 142 c 0
 440.333007812 142 488.333007812 165 541 211 c 1
 539 226.333007812 538 242.666992188 538 260 c 0
 538 396.666992188 563.333007812 520.166992188 614 630.5 c 0
 664.666992188 740.833007812 724.333007812 796 793 796 c 0
 847.666992188 796 875 754.333007812 875 671 c 0
 875 545 802.333007812 393.333007812 657 216 c 1
 679.666992188 166.666992188 708.666992188 142 744 142 c 0
 807.333007812 142 876.166992188 191.5 950.5 290.5 c 0
 1024.83300781 389.5 1062 484.666992188 1062 576 c 0
 1062 598.666992188 1050.5 622.166992188 1027.5 646.5 c 0
 1004.5 670.833007812 993 695 993 719 c 0
 993 741 1000.83300781 760.5 1016.5 777.5 c 0
 1032.16699219 794.5 1051 803 1073 803 c 0
 1136.33300781 803 1168 761.666992188 1168 679 c 0
785 641 m 0
 785 663.666992188 775.666992188 675 757 675 c 0
 730.333007812 675 703 642 675 576 c 0
 644.333007812 504 629 433.333007812 629 364 c 0
 629 345.333007812 630 326.666992188 632 308 c 1
 734 436.666992188 785 547.666992188 785 641 c 0
EndSplineSet
EndChar

StartChar: W
Encoding: 87 87 27
Width: 1168
Flags: HW
LayerCount: 2
Fore
SplineSet
1168 679 m 0
 1168 532.333007812 1118 384.333007812 1018 235 c 0
 916.666992188 83.6669921875 815.666992188 8 715 8 c 0
 649 8 599.333007812 44.6669921875 566 118 c 1
 486.666992188 44.6669921875 414.333007812 8 349 8 c 0
 295 8 250.833007812 25 216.5 59 c 0
 182.166992188 93 165 136.666992188 165 190 c 0
 165 351.333007812 233.333007812 508.666992188 370 662 c 1
 192 662 l 2
 173.333007812 662 155 656.333007812 137 645 c 0
 117 633 107 618 107 600 c 0
 107 597.333007812 116 565.333007812 134 504 c 1
 126 466.666992188 102.333007812 448 63 448 c 0
 45.6669921875 448 30.8330078125 454.833007812 18.5 468.5 c 0
 6.1669921875 482.166992188 0 497.666992188 0 515 c 0
 0 559.666992188 21.6669921875 615.333007812 65 682 c 0
 111 752.666992188 154 788 194 788 c 0
 212 788 238.5 786.666992188 273.5 784 c 0
 308.5 781.333007812 334.666992188 780 352 780 c 0
 368.666992188 780 393.5 781.333007812 426.5 784 c 0
 459.5 786.666992188 484 788 500 788 c 0
 522.666992188 788 534 779.666992188 534 763 c 0
 534 754.333007812 529.666992188 745.333007812 521 736 c 0
 377 584.666992188 305 427 305 263 c 0
 305 231.666992188 312.333007812 204.666992188 327 182 c 0
 344.333007812 155.333007812 367.666992188 142 397 142 c 0
 440.333007812 142 488.333007812 165 541 211 c 1
 539 226.333007812 538 242.666992188 538 260 c 0
 538 396.666992188 563.5 520.166992188 614.5 630.5 c 0
 665.5 740.833007812 725 796 793 796 c 0
 847.666992188 796 875 754.333007812 875 671 c 0
 875 545 802.333007812 393.333007812 657 216 c 1
 679.666992188 166.666992188 708.666992188 142 744 142 c 0
 807.333007812 142 876.166992188 191.5 950.5 290.5 c 0
 1024.83300781 389.5 1062 484.666992188 1062 576 c 0
 1062 598.666992188 1050.5 622.166992188 1027.5 646.5 c 0
 1004.5 670.833007812 993 695 993 719 c 0
 993 741 1000.83300781 760.5 1016.5 777.5 c 0
 1032.16699219 794.5 1051 803 1073 803 c 0
 1136.33300781 803 1168 761.666992188 1168 679 c 0
853 -224 m 0
 853 -238 849.333007812 -255 842 -275 c 0
 832.666992188 -298.333007812 822.333007812 -310 811 -310 c 2
 77 -310 l 2
 59.6669921875 -310 51 -301.666992188 51 -285 c 0
 51 -271.666992188 54.6669921875 -255.333007812 62 -236 c 0
 70.6669921875 -212.666992188 80.6669921875 -201 92 -201 c 2
 826 -201 l 2
 844 -201 853 -208.666992188 853 -224 c 0
785 641 m 0
 785 663.666992188 775.666992188 675 757 675 c 0
 730.333007812 675 703 642 675 576 c 0
 644.333007812 504 629 433.333007812 629 364 c 0
 629 345.333007812 630 326.666992188 632 308 c 1
 734 436.666992188 785 547.666992188 785 641 c 0
EndSplineSet
EndChar

StartChar: x
Encoding: 120 120 28
Width: 807
Flags: HW
LayerCount: 2
Fore
SplineSet
807 625 m 0
 807 456.333007812 743.333007812 295.333007812 616 142 c 0
 542 52.6669921875 476.333007812 8 419 8 c 0
 360.333007812 8 331 33 331 83 c 0
 331 105 338.333007812 124.166992188 353 140.5 c 0
 367.666992188 156.833007812 385.666992188 165 407 165 c 0
 427.666992188 165 444.666992188 158.666992188 458 146 c 0
 471.333007812 133.333007812 478.666992188 127 480 127 c 0
 493.333007812 127 510 142.666992188 530 174 c 0
 562.666992188 224 591.666992188 288.666992188 617 368 c 0
 643 450 656 519.666992188 656 577 c 0
 656 645.666992188 639.333007812 680 606 680 c 0
 533.333007812 680 444.333007812 600.333007812 339 441 c 0
 251.666992188 309 192.333007812 194 161 96 c 0
 151 63.3330078125 145.666992188 46.6669921875 145 46 c 0
 136.333007812 29.3330078125 122.333007812 21 103 21 c 0
 47 21 19 35.3330078125 19 64 c 0
 19 68 20.6669921875 75.6669921875 24 87 c 2
 328 1137 l 2
 331.333007812 1149 333 1160.33300781 333 1171 c 0
 333 1195 316.666992188 1211.16699219 284 1219.5 c 0
 251.333007812 1227.83300781 235 1237 235 1247 c 0
 235 1274.33300781 246 1292.66699219 268 1302 c 0
 272.666992188 1304 290 1306.33300781 320 1309 c 0
 333.333007812 1310.33300781 352.666992188 1312.66699219 378 1316 c 0
 383.333007812 1317.33300781 402.333007812 1323 435 1333 c 0
 465 1341.66699219 482.333007812 1346 487 1346 c 0
 506.333007812 1346 516 1338 516 1322 c 0
 516 1316.66699219 513.333007812 1305 508 1287 c 2
 272 475 l 1
 418 693.666992188 549.666992188 803 667 803 c 0
 760.333007812 803 807 743.666992188 807 625 c 0
471 -161 m 0
 471 -209.666992188 439.666992188 -254 377 -294 c 0
 319.666992188 -329.333007812 265 -347 213 -347 c 0
 163 -347 116 -331.666992188 72 -301 c 0
 24 -267 0 -226 0 -178 c 0
 0 -158 9 -148 27 -148 c 0
 35 -148 45.6669921875 -156.666992188 59 -174 c 0
 76.3330078125 -196.666992188 93.3330078125 -213.333007812 110 -224 c 0
 138.666992188 -242 175.333007812 -251 220 -251 c 0
 266.666992188 -251 317 -233.166992188 371 -197.5 c 0
 425 -161.833007812 451 -144 449 -144 c 1
 463.666992188 -144 471 -149.666992188 471 -161 c 0
EndSplineSet
EndChar

StartChar: X
Encoding: 88 88 29
Width: 852
Flags: HW
LayerCount: 2
Fore
SplineSet
852 625 m 0
 852 456.333007812 788.333007812 295.333007812 661 142 c 0
 587 52.6669921875 521.333007812 8 464 8 c 0
 405.333007812 8 376 33 376 83 c 0
 376 105 383.333007812 124.166992188 398 140.5 c 0
 412.666992188 156.833007812 430.666992188 165 452 165 c 0
 472.666992188 165 489.666992188 158.666992188 503 146 c 0
 516.333007812 133.333007812 523.666992188 127 525 127 c 0
 538.333007812 127 555 142.666992188 575 174 c 0
 607.666992188 224 636.666992188 288.666992188 662 368 c 0
 688 450 701 519.666992188 701 577 c 0
 701 645.666992188 684.333007812 680 651 680 c 0
 578.333007812 680 489.333007812 600.333007812 384 441 c 0
 296.666992188 309 237.333007812 194 206 96 c 0
 196 63.3330078125 190.666992188 46.6669921875 190 46 c 0
 181.333007812 29.3330078125 167.333007812 21 148 21 c 0
 92 21 64 35.3330078125 64 64 c 0
 64 68 65.6669921875 75.6669921875 69 87 c 2
 373 1137 l 2
 376.333007812 1149 378 1160.33300781 378 1171 c 0
 378 1195 361.666992188 1211.16699219 329 1219.5 c 0
 296.333007812 1227.83300781 280 1237 280 1247 c 0
 280 1274.33300781 291 1292.66699219 313 1302 c 0
 317.666992188 1304 335 1306.33300781 365 1309 c 0
 378.333007812 1310.33300781 397.666992188 1312.66699219 423 1316 c 0
 428.333007812 1317.33300781 447.333007812 1323 480 1333 c 0
 510 1341.66699219 527.333007812 1346 532 1346 c 0
 551.333007812 1346 561 1338 561 1322 c 0
 561 1316.66699219 558.333007812 1305 553 1287 c 2
 317 475 l 1
 463 693.666992188 594.666992188 803 712 803 c 0
 805.333007812 803 852 743.666992188 852 625 c 0
532 -224 m 0
 532 -238 528.333007812 -255 521 -275 c 0
 511.666992188 -298.333007812 501.333007812 -310 490 -310 c 2
 26 -310 l 2
 8.6669921875 -310 0 -301.666992188 0 -285 c 0
 0 -271.666992188 3.6669921875 -255.333007812 11 -236 c 0
 19.6669921875 -212.666992188 29.6669921875 -201 41 -201 c 2
 505 -201 l 2
 523 -201 532 -208.666992188 532 -224 c 0
EndSplineSet
EndChar

StartChar: y
Encoding: 121 121 30
Width: 794
Flags: HW
LayerCount: 2
Fore
SplineSet
794 698 m 0
 794 641.333007812 777.333007812 564 744 466 c 0
 716 382 684.666992188 308 650 244 c 0
 584 120 504.666992188 -4.3330078125 412 -129 c 0
 278.666992188 -308.333007812 175.666992188 -398 103 -398 c 0
 73.6669921875 -398 49.1669921875 -388 29.5 -368 c 0
 9.8330078125 -348 0 -323.333007812 0 -294 c 0
 0 -269.333007812 8.8330078125 -247.5 26.5 -228.5 c 0
 44.1669921875 -209.5 65.3330078125 -200 90 -200 c 0
 104.666992188 -200 122.333007812 -205.333007812 143 -216 c 0
 163.666992188 -226.666992188 178.333007812 -232 187 -232 c 0
 207.666992188 -232 246.666992188 -198.666992188 304 -132 c 0
 336.666992188 -94.6669921875 357.333007812 -60 366 -28 c 0
 372.666992188 -4.6669921875 376 35.3330078125 376 92 c 0
 376 206 368.666992188 308 354 398 c 0
 324 576.666992188 283.666992188 666 233 666 c 0
 203.666992188 666 173.166992188 642.666992188 141.5 596 c 0
 109.833007812 549.333007812 90 526 82 526 c 0
 74 526 64.5 530.166992188 53.5 538.5 c 0
 42.5 546.833007812 37 555 37 563 c 0
 37 566.333007812 38 570 40 574 c 0
 61.3330078125 625.333007812 89.3330078125 673 124 717 c 0
 170 774.333007812 213.666992188 803 255 803 c 0
 349 803 417.666992188 713.666992188 461 535 c 0
 487.666992188 423.666992188 502 296.333007812 504 153 c 1
 609.333007812 321.666992188 662 473 662 607 c 0
 662 619 660.5 636.166992188 657.5 658.5 c 0
 654.5 680.833007812 653 697.666992188 653 709 c 0
 653 771.666992188 674.333007812 803 717 803 c 0
 768.333007812 803 794 768 794 698 c 0
EndSplineSet
EndChar

StartChar: z
Encoding: 122 122 31
Width: 756
Flags: HW
LayerCount: 2
Fore
SplineSet
756 759 m 0
 756 735 741.333007812 707 712 675 c 0
 694 655.666992188 595 555.666992188 415 375 c 0
 376.333007812 337.666992188 320.333007812 280.333007812 247 203 c 1
 338.333007812 157.666992188 407 87 453 -9 c 0
 476.333007812 -58.3330078125 497 -83 515 -83 c 0
 530.333007812 -83 546.333007812 -67 563 -35 c 0
 579.666992188 -3 599.666992188 13 623 13 c 0
 657 13 674 -3.6669921875 674 -37 c 0
 674 -73.6669921875 651.333007812 -104.333007812 606 -129 c 0
 568 -149.666992188 529 -160 489 -160 c 0
 439 -160 389.333007812 -139 340 -97 c 0
 323.333007812 -83 286.333007812 -43.6669921875 229 21 c 0
 191.666992188 63 162.333007812 84 141 84 c 0
 128.333007812 84 112.333007812 72.5 93 49.5 c 0
 73.6669921875 26.5 55.3330078125 15 38 15 c 0
 12.6669921875 15 0 26 0 48 c 0
 0 64.6669921875 30 101 90 157 c 0
 93.3330078125 159.666992188 144.666992188 211.666992188 244 313 c 0
 298 365 377 445.333007812 481 554 c 1
 438.333007812 562.666992188 386 586 324 624 c 0
 283.333007812 648.666992188 255 661 239 661 c 0
 223.666992188 661 210.666992188 654.666992188 200 642 c 0
 189.333007812 629.333007812 184 615.333007812 184 600 c 0
 184 590 189.333007812 577.333007812 200 562 c 0
 210.666992188 546.666992188 216 534.333007812 216 525 c 0
 216 505 204.666992188 495 182 495 c 0
 160 495 141.333007812 510.666992188 126 542 c 0
 112.666992188 568.666992188 106 594.333007812 106 619 c 0
 106 667.666992188 124 710.5 160 747.5 c 0
 196 784.5 238 803 286 803 c 0
 325.333007812 803 378.666992188 784 446 746 c 0
 513.333007812 708 565.333007812 689 602 689 c 0
 620.666992188 689 638.833007812 707.5 656.5 744.5 c 0
 674.166992188 781.5 695 800 719 800 c 0
 743.666992188 800 756 786.333007812 756 759 c 0
EndSplineSet
EndChar

StartChar: j
Encoding: 106 106 32
Width: 794
Flags: HW
LayerCount: 2
Fore
SplineSet
794 698 m 0
 794 641.333007812 777.333007812 564 744 466 c 0
 716 382 684.666992188 308 650 244 c 0
 584 120 504.666992188 -4.3330078125 412 -129 c 0
 278.666992188 -308.333007812 175.666992188 -398 103 -398 c 0
 73.6669921875 -398 49.1669921875 -388 29.5 -368 c 0
 9.8330078125 -348 0 -323.333007812 0 -294 c 0
 0 -269.333007812 8.8330078125 -247.5 26.5 -228.5 c 0
 44.1669921875 -209.5 65.3330078125 -200 90 -200 c 0
 104.666992188 -200 122.333007812 -205.333007812 143 -216 c 0
 163.666992188 -226.666992188 178.333007812 -232 187 -232 c 0
 207.666992188 -232 246.666992188 -198.666992188 304 -132 c 0
 336.666992188 -94.6669921875 357.333007812 -60 366 -28 c 0
 372.666992188 -4.6669921875 376 35.3330078125 376 92 c 0
 376 206 368.666992188 308 354 398 c 0
 324 576.666992188 283.666992188 666 233 666 c 0
 203.666992188 666 173.166992188 642.666992188 141.5 596 c 0
 109.833007812 549.333007812 90 526 82 526 c 0
 74 526 64.5 530.166992188 53.5 538.5 c 0
 42.5 546.833007812 37 555 37 563 c 0
 37 566.333007812 38 570 40 574 c 0
 61.3330078125 625.333007812 89.3330078125 673 124 717 c 0
 170 774.333007812 213.666992188 803 255 803 c 0
 349 803 417.666992188 713.666992188 461 535 c 0
 487.666992188 423.666992188 502 296.333007812 504 153 c 1
 609.333007812 321.666992188 662 473 662 607 c 0
 662 619 660.5 636.166992188 657.5 658.5 c 0
 654.5 680.833007812 653 697.666992188 653 709 c 0
 653 771.666992188 674.333007812 803 717 803 c 0
 768.333007812 803 794 768 794 698 c 0
EndSplineSet
EndChar
